<mxfile host="app.diagrams.net" modified="2023-06-08T16:39:06.289Z" agent="Mozilla/5.0 (X11; Ubuntu; Linux x86_64; rv:109.0) Gecko/20100101 Firefox/113.0" etag="p8lBsEoeDnr0PTtaimrN" version="21.3.4" type="github">
  <diagram name="Pagina-1" id="c6r7ROtZYmS65uKzIdzQ">
    <mxGraphModel dx="1355" dy="795" grid="1" gridSize="10" guides="1" tooltips="1" connect="1" arrows="1" fold="1" page="1" pageScale="1" pageWidth="827" pageHeight="1169" math="0" shadow="0">
      <root>
        <mxCell id="0" />
        <mxCell id="1" parent="0" />
        <mxCell id="LnVoANyj6Dh3y2EfFEzu-19" style="edgeStyle=orthogonalEdgeStyle;rounded=0;orthogonalLoop=1;jettySize=auto;html=1;entryX=0.5;entryY=0;entryDx=0;entryDy=0;endArrow=open;endFill=0;" parent="1" source="LnVoANyj6Dh3y2EfFEzu-4" target="LnVoANyj6Dh3y2EfFEzu-10" edge="1">
          <mxGeometry relative="1" as="geometry" />
        </mxCell>
        <mxCell id="LnVoANyj6Dh3y2EfFEzu-21" style="edgeStyle=orthogonalEdgeStyle;rounded=0;orthogonalLoop=1;jettySize=auto;html=1;entryX=0.5;entryY=1;entryDx=0;entryDy=0;endArrow=block;endFill=0;startSize=12;endSize=10;" parent="1" source="LnVoANyj6Dh3y2EfFEzu-4" target="LnVoANyj6Dh3y2EfFEzu-14" edge="1">
          <mxGeometry relative="1" as="geometry" />
        </mxCell>
        <mxCell id="LnVoANyj6Dh3y2EfFEzu-4" value="GestioneAmministratore Controller" style="swimlane;fontStyle=1;align=center;verticalAlign=top;childLayout=stackLayout;horizontal=1;startSize=30;horizontalStack=0;resizeParent=1;resizeParentMax=0;resizeLast=0;collapsible=1;marginBottom=0;whiteSpace=wrap;html=1;fillColor=#60a917;fontColor=#ffffff;strokeColor=#2D7600;" parent="1" vertex="1">
          <mxGeometry x="115" y="360" width="220" height="110" as="geometry" />
        </mxCell>
        <mxCell id="LnVoANyj6Dh3y2EfFEzu-5" value="" style="line;strokeWidth=1;fillColor=none;align=left;verticalAlign=middle;spacingTop=-1;spacingLeft=3;spacingRight=3;rotatable=0;labelPosition=right;points=[];portConstraint=eastwest;strokeColor=inherit;" parent="LnVoANyj6Dh3y2EfFEzu-4" vertex="1">
          <mxGeometry y="30" width="220" height="8" as="geometry" />
        </mxCell>
        <mxCell id="LnVoANyj6Dh3y2EfFEzu-6" value="&lt;div&gt;+List&amp;lt;Assistente&amp;gt; getAssistenti()&lt;/div&gt;&lt;div&gt;+creaAccountAssistenza(Username, Password)&lt;/div&gt;&lt;div&gt;+rimuoviAccountAssistenza(Username)&lt;br&gt;&lt;/div&gt;" style="text;strokeColor=none;fillColor=none;align=center;verticalAlign=top;spacingLeft=4;spacingRight=4;overflow=hidden;rotatable=0;points=[[0,0.5],[1,0.5]];portConstraint=eastwest;whiteSpace=wrap;html=1;" parent="LnVoANyj6Dh3y2EfFEzu-4" vertex="1">
          <mxGeometry y="38" width="220" height="72" as="geometry" />
        </mxCell>
        <mxCell id="LnVoANyj6Dh3y2EfFEzu-10" value="Log Controller" style="swimlane;fontStyle=1;align=center;verticalAlign=top;childLayout=stackLayout;horizontal=1;startSize=30;horizontalStack=0;resizeParent=1;resizeParentMax=0;resizeLast=0;collapsible=1;marginBottom=0;whiteSpace=wrap;html=1;fillColor=#60a917;fontColor=#ffffff;strokeColor=#2D7600;" parent="1" vertex="1">
          <mxGeometry x="80" y="600" width="290" height="170" as="geometry" />
        </mxCell>
        <mxCell id="aTxCh61Q29WT1Rl2oLR_-4" value="logReader: Reader" style="text;html=1;align=center;verticalAlign=middle;resizable=0;points=[];autosize=1;strokeColor=none;fillColor=none;" vertex="1" parent="LnVoANyj6Dh3y2EfFEzu-10">
          <mxGeometry y="30" width="290" height="30" as="geometry" />
        </mxCell>
        <mxCell id="LnVoANyj6Dh3y2EfFEzu-11" value="" style="line;strokeWidth=1;fillColor=none;align=left;verticalAlign=middle;spacingTop=-1;spacingLeft=3;spacingRight=3;rotatable=0;labelPosition=right;points=[];portConstraint=eastwest;strokeColor=inherit;" parent="LnVoANyj6Dh3y2EfFEzu-10" vertex="1">
          <mxGeometry y="60" width="290" height="20" as="geometry" />
        </mxCell>
        <mxCell id="LnVoANyj6Dh3y2EfFEzu-12" value="&lt;div&gt;+List&amp;lt;VoceDiLog&amp;gt; getVociDiLog(DateTime, DateTime)&lt;/div&gt;&lt;div&gt;+List&amp;lt;VoceDiLog&amp;gt; getVociDiLog(Date)&lt;/div&gt;&lt;div&gt;+List&amp;lt;VoceDiLog&amp;gt; getVociDiLog()&lt;br&gt;&lt;/div&gt;" style="text;strokeColor=none;fillColor=none;align=center;verticalAlign=top;spacingLeft=4;spacingRight=4;overflow=hidden;rotatable=0;points=[[0,0.5],[1,0.5]];portConstraint=eastwest;whiteSpace=wrap;html=1;" parent="LnVoANyj6Dh3y2EfFEzu-10" vertex="1">
          <mxGeometry y="80" width="290" height="90" as="geometry" />
        </mxCell>
        <mxCell id="LnVoANyj6Dh3y2EfFEzu-14" value="Controller" style="swimlane;fontStyle=1;align=center;verticalAlign=top;childLayout=stackLayout;horizontal=1;startSize=30;horizontalStack=0;resizeParent=1;resizeParentMax=0;resizeLast=0;collapsible=1;marginBottom=0;whiteSpace=wrap;html=1;fillColor=#60a917;fontColor=#ffffff;strokeColor=#2D7600;" parent="1" vertex="1">
          <mxGeometry x="120" y="130" width="210" height="120" as="geometry" />
        </mxCell>
        <mxCell id="LnVoANyj6Dh3y2EfFEzu-17" value="dbConnection: Connection" style="text;html=1;align=center;verticalAlign=middle;resizable=0;points=[];autosize=1;strokeColor=none;fillColor=none;" parent="LnVoANyj6Dh3y2EfFEzu-14" vertex="1">
          <mxGeometry y="30" width="210" height="30" as="geometry" />
        </mxCell>
        <mxCell id="LnVoANyj6Dh3y2EfFEzu-15" value="" style="line;strokeWidth=1;fillColor=none;align=left;verticalAlign=middle;spacingTop=-1;spacingLeft=3;spacingRight=3;rotatable=0;labelPosition=right;points=[];portConstraint=eastwest;strokeColor=inherit;" parent="LnVoANyj6Dh3y2EfFEzu-14" vertex="1">
          <mxGeometry y="60" width="210" height="20" as="geometry" />
        </mxCell>
        <mxCell id="LnVoANyj6Dh3y2EfFEzu-16" value="-openConnection(String)&lt;br&gt;#Connection getConnection()" style="text;strokeColor=none;fillColor=none;align=center;verticalAlign=top;spacingLeft=4;spacingRight=4;overflow=hidden;rotatable=0;points=[[0,0.5],[1,0.5]];portConstraint=eastwest;whiteSpace=wrap;html=1;" parent="LnVoANyj6Dh3y2EfFEzu-14" vertex="1">
          <mxGeometry y="80" width="210" height="40" as="geometry" />
        </mxCell>
        <mxCell id="LnVoANyj6Dh3y2EfFEzu-27" value="1" style="text;html=1;align=center;verticalAlign=middle;resizable=0;points=[];autosize=1;strokeColor=none;fillColor=none;" parent="1" vertex="1">
          <mxGeometry x="230" y="570" width="30" height="30" as="geometry" />
        </mxCell>
        <mxCell id="LnVoANyj6Dh3y2EfFEzu-28" value="1" style="text;html=1;align=center;verticalAlign=middle;resizable=0;points=[];autosize=1;strokeColor=none;fillColor=none;" parent="1" vertex="1">
          <mxGeometry x="230" y="470" width="30" height="30" as="geometry" />
        </mxCell>
        <mxCell id="LnVoANyj6Dh3y2EfFEzu-34" style="edgeStyle=orthogonalEdgeStyle;rounded=0;orthogonalLoop=1;jettySize=auto;html=1;entryX=0.75;entryY=0;entryDx=0;entryDy=0;endArrow=none;endFill=0;" parent="1" source="LnVoANyj6Dh3y2EfFEzu-33" target="LnVoANyj6Dh3y2EfFEzu-4" edge="1">
          <mxGeometry relative="1" as="geometry" />
        </mxCell>
        <mxCell id="LnVoANyj6Dh3y2EfFEzu-33" value="" style="ellipse;whiteSpace=wrap;html=1;aspect=fixed;" parent="1" vertex="1">
          <mxGeometry x="263" y="310" width="30" height="30" as="geometry" />
        </mxCell>
        <mxCell id="LnVoANyj6Dh3y2EfFEzu-35" value="IGestioneAmministratore" style="text;html=1;align=center;verticalAlign=middle;resizable=0;points=[];autosize=1;strokeColor=none;fillColor=none;" parent="1" vertex="1">
          <mxGeometry x="290" y="310" width="150" height="30" as="geometry" />
        </mxCell>
        <mxCell id="aTxCh61Q29WT1Rl2oLR_-1" style="edgeStyle=orthogonalEdgeStyle;rounded=0;orthogonalLoop=1;jettySize=auto;html=1;entryX=0.75;entryY=0;entryDx=0;entryDy=0;endArrow=none;endFill=0;" edge="1" parent="1" source="aTxCh61Q29WT1Rl2oLR_-2">
          <mxGeometry relative="1" as="geometry">
            <mxPoint x="291.5" y="600" as="targetPoint" />
          </mxGeometry>
        </mxCell>
        <mxCell id="aTxCh61Q29WT1Rl2oLR_-2" value="" style="ellipse;whiteSpace=wrap;html=1;aspect=fixed;" vertex="1" parent="1">
          <mxGeometry x="276.5" y="550" width="30" height="30" as="geometry" />
        </mxCell>
        <mxCell id="aTxCh61Q29WT1Rl2oLR_-3" value="ILog" style="text;html=1;align=center;verticalAlign=middle;resizable=0;points=[];autosize=1;strokeColor=none;fillColor=none;" vertex="1" parent="1">
          <mxGeometry x="310" y="550" width="50" height="30" as="geometry" />
        </mxCell>
      </root>
    </mxGraphModel>
  </diagram>
</mxfile>
